# xmcd
#
# Track frame offsets: 
#        182
#        22265
#        36080
#        50767
#        68470
#        82510
#        102467
#        127270
#
# Disc length: 2200 seconds
#
# Revision: 2
# Processed by: cddbd v1.5.2PL0 Copyright (c) Steve Scherf et al.
# Submitted via: ExactAudioCopy v0.99pb5
#
DISCID=67089608
DTITLE=Canned Heat - Historical Figures And Ancient Heads
DYEAR=1990
DGENRE=Blues
TTITLE0=Sneakin' Around
TTITLE1=Hill's Stomp
TTITLE2=Rockin' With The King (w/ Little Richard)
TTITLE3=I Don't Care What You Tell Me
TTITLE4=Long Way From L.A.
TTITLE5=Cherokee Dance
TTITLE6=That's All Right
TTITLE7=Utah
EXTD=BGOCD 83 YEAR: 1972
EXTT0=
EXTT1=
EXTT2=
EXTT3=
EXTT4=
EXTT5=
EXTT6=
EXTT7=
PLAYORDER=
